<svg width="35" height="34" viewBox="0 0 35 34" fill="none" xmlns="http://www.w3.org/2000/svg">
<path d="M17.75 3.06133C22.2922 3.06133 22.8301 3.08125 24.6164 3.16094C26.2766 3.23398 27.173 3.51289 27.7707 3.74531C28.5609 4.05078 29.132 4.42266 29.723 5.01367C30.3207 5.61133 30.6859 6.17578 30.9914 6.96602C31.2238 7.56367 31.5027 8.4668 31.5758 10.1203C31.6555 11.9133 31.6754 12.4512 31.6754 16.9867C31.6754 21.5289 31.6555 22.0668 31.5758 23.8531C31.5027 25.5133 31.2238 26.4098 30.9914 27.0074C30.6859 27.7977 30.3141 28.3687 29.723 28.9598C29.1254 29.5574 28.5609 29.9227 27.7707 30.2281C27.173 30.4605 26.2699 30.7395 24.6164 30.8125C22.8234 30.8922 22.2855 30.9121 17.75 30.9121C13.2078 30.9121 12.6699 30.8922 10.8836 30.8125C9.22344 30.7395 8.32695 30.4605 7.7293 30.2281C6.93906 29.9227 6.36797 29.5508 5.77695 28.9598C5.1793 28.3621 4.81406 27.7977 4.50859 27.0074C4.27617 26.4098 3.99727 25.5066 3.92422 23.8531C3.84453 22.0602 3.82461 21.5223 3.82461 16.9867C3.82461 12.4445 3.84453 11.9066 3.92422 10.1203C3.99727 8.46016 4.27617 7.56367 4.50859 6.96602C4.81406 6.17578 5.18594 5.60469 5.77695 5.01367C6.37461 4.41602 6.93906 4.05078 7.7293 3.74531C8.32695 3.51289 9.23008 3.23398 10.8836 3.16094C12.6699 3.08125 13.2078 3.06133 17.75 3.06133ZM17.75 0C13.1348 0 12.557 0.0199219 10.7441 0.0996094C8.93789 0.179297 7.69609 0.471484 6.62031 0.889844C5.49805 1.32812 4.54844 1.90586 3.60547 2.85547C2.65586 3.79844 2.07812 4.74805 1.63984 5.86367C1.22148 6.94609 0.929297 8.18125 0.849609 9.9875C0.769922 11.807 0.75 12.3848 0.75 17C0.75 21.6152 0.769922 22.193 0.849609 24.0059C0.929297 25.8121 1.22148 27.0539 1.63984 28.1297C2.07812 29.252 2.65586 30.2016 3.60547 31.1445C4.54844 32.0875 5.49805 32.6719 6.61367 33.1035C7.69609 33.5219 8.93125 33.8141 10.7375 33.8937C12.5504 33.9734 13.1281 33.9934 17.7434 33.9934C22.3586 33.9934 22.9363 33.9734 24.7492 33.8937C26.5555 33.8141 27.7973 33.5219 28.873 33.1035C29.9887 32.6719 30.9383 32.0875 31.8813 31.1445C32.8242 30.2016 33.4086 29.252 33.8402 28.1363C34.2586 27.0539 34.5508 25.8188 34.6305 24.0125C34.7102 22.1996 34.7301 21.6219 34.7301 17.0066C34.7301 12.3914 34.7102 11.8137 34.6305 10.0008C34.5508 8.19453 34.2586 6.95273 33.8402 5.87695C33.4219 4.74805 32.8441 3.79844 31.8945 2.85547C30.9516 1.9125 30.002 1.32812 28.8863 0.896484C27.8039 0.478125 26.5688 0.185938 24.7625 0.10625C22.943 0.0199219 22.3652 0 17.75 0Z" fill="#010101" fill-opacity="0.5"/>
<path d="M17.75 8.26758C12.9289 8.26758 9.01758 12.1789 9.01758 17C9.01758 21.8211 12.9289 25.7324 17.75 25.7324C22.5711 25.7324 26.4824 21.8211 26.4824 17C26.4824 12.1789 22.5711 8.26758 17.75 8.26758ZM17.75 22.6645C14.6223 22.6645 12.0855 20.1277 12.0855 17C12.0855 13.8723 14.6223 11.3355 17.75 11.3355C20.8777 11.3355 23.4145 13.8723 23.4145 17C23.4145 20.1277 20.8777 22.6645 17.75 22.6645Z" fill="#010101" fill-opacity="0.5"/>
<path d="M28.8664 7.92222C28.8664 9.05113 27.95 9.96089 26.8277 9.96089C25.6988 9.96089 24.7891 9.04449 24.7891 7.92222C24.7891 6.79331 25.7055 5.88354 26.8277 5.88354C27.95 5.88354 28.8664 6.79995 28.8664 7.92222Z" fill="#010101" fill-opacity="0.5"/>
</svg>
