<svg width="34" height="28" viewBox="0 0 34 28" fill="none" xmlns="http://www.w3.org/2000/svg">
<path d="M10.6961 27.8125C23.5231 27.8125 30.5409 17.1829 30.5409 7.9677C30.5409 7.66887 30.5343 7.3634 30.521 7.06457C31.8862 6.0773 33.0643 4.85442 34 3.4534C32.7286 4.01908 31.3787 4.38852 29.9964 4.5491C31.4518 3.67668 32.5416 2.30615 33.0637 0.691564C31.6944 1.50302 30.1971 2.07543 28.6357 2.38426C27.5837 1.26644 26.1927 0.526309 24.6779 0.2783C23.163 0.0302908 21.6087 0.288216 20.2551 1.0122C18.9016 1.73618 17.8242 2.88589 17.1896 4.28359C16.555 5.68128 16.3985 7.2491 16.7443 8.74465C13.9719 8.60552 11.2596 7.88531 8.78331 6.6307C6.30704 5.37609 4.12207 3.6151 2.37004 1.46188C1.47957 2.99716 1.20708 4.81389 1.60796 6.54286C2.00884 8.27182 3.05301 9.78328 4.52824 10.77C3.42072 10.7349 2.33747 10.4367 1.36797 9.90012V9.98645C1.36698 11.5976 1.92397 13.1594 2.94427 14.4063C3.96457 15.6532 5.38521 16.5084 6.96469 16.8263C5.93874 17.107 4.86197 17.1479 3.8177 16.9458C4.26339 18.3314 5.13056 19.5433 6.29817 20.4124C7.46579 21.2814 8.87559 21.7642 10.3308 21.7935C7.86027 23.7341 4.80841 24.7867 1.6668 24.7818C1.10966 24.7809 0.553065 24.7468 0 24.6795C3.19155 26.727 6.90417 27.8145 10.6961 27.8125Z" fill="#010101" fill-opacity="0.5"/>
</svg>
