<svg width="35" height="34" viewBox="0 0 35 34" fill="none" xmlns="http://www.w3.org/2000/svg">
<path d="M31.7332 0H2.76016C1.37227 0 0.25 1.0957 0.25 2.45039V31.543C0.25 32.8977 1.37227 34 2.76016 34H31.7332C33.1211 34 34.25 32.8977 34.25 31.5496V2.45039C34.25 1.0957 33.1211 0 31.7332 0ZM10.3371 28.973H5.29023V12.7434H10.3371V28.973ZM7.81367 10.532C6.19336 10.532 4.88516 9.22383 4.88516 7.61016C4.88516 5.99648 6.19336 4.68828 7.81367 4.68828C9.42734 4.68828 10.7355 5.99648 10.7355 7.61016C10.7355 9.21719 9.42734 10.532 7.81367 10.532ZM29.223 28.973H24.1828V21.084C24.1828 19.2047 24.1496 16.7809 21.5598 16.7809C18.9367 16.7809 18.5383 18.8328 18.5383 20.9512V28.973H13.5047V12.7434H18.3391V14.9613H18.4055C19.0762 13.6863 20.723 12.3383 23.1734 12.3383C28.2801 12.3383 29.223 15.6984 29.223 20.068V28.973Z" fill="#010101" fill-opacity="0.5"/>
</svg>
